<svg width="22" height="18" viewBox="0 0 22 18" fill="none" xmlns="http://www.w3.org/2000/svg">
<g clip-path="url(#clip0_3_37)">
<path d="M21.9893 10.5023C21.9606 9.63007 21.8277 8.8117 21.2891 8.241C20.7829 7.7026 20.0576 7.42982 19.2425 7.46571C19.1599 7.4693 19.106 7.4693 19.0558 7.42623C18.9265 5.17213 18.4777 2.12839 17.8924 0.710607C17.7093 0.118369 16.9552 -0.226207 16.4453 0.175797C15.519 0.710606 14.3915 1.56128 13.4615 2.39759C12.8116 2.23607 12.115 2.13916 11.3753 2.11044C11.3466 2.11044 11.3179 2.10685 11.2891 2.10685L11.0773 2.10326V2.09967L10.9947 2.10326L10.9121 2.09967V2.10326L10.7003 2.10685C10.6716 2.10685 10.6428 2.10685 10.6141 2.11044C9.87442 2.13557 9.17784 2.23248 8.52793 2.39759C7.59794 1.56128 6.46689 0.710606 5.54409 0.175797C5.03421 -0.226207 4.28017 0.118369 4.09705 0.710607C3.51895 2.12839 3.07012 5.16854 2.93726 7.42264C2.88699 7.46571 2.83313 7.46571 2.75414 7.46212C1.93906 7.42623 1.21374 7.7026 0.70746 8.23741C0.172451 8.80453 0.0360061 9.62648 0.00728081 10.4987C-0.0106725 11.0443 -0.0106738 11.2345 0.0934554 11.9703C0.262217 13.1691 1.12398 14.1311 2.31249 14.2352C2.52075 14.2531 2.729 14.2603 2.94085 14.2603C3.10602 14.2603 3.27479 14.2567 3.44355 14.2531C3.62308 14.2495 3.80979 14.2459 4.00369 14.2459C4.26222 14.2459 4.42739 13.9803 4.31967 13.7506C4.15809 13.4096 4.02523 13.0722 3.91392 12.7384C3.81698 12.4405 3.73798 12.1426 3.68412 11.8519C3.67694 11.8196 3.67335 11.7873 3.66617 11.7549C3.47945 10.6925 3.55845 9.65519 3.90315 8.61788C4.37353 7.20369 5.23888 6.01921 6.47048 5.09317C7.69848 4.1743 9.22092 3.66462 10.7541 3.65744H10.9947H11.2353C12.7721 3.66103 14.2945 4.1743 15.5189 5.09317C16.7505 6.01562 17.6159 7.2001 18.0863 8.61788C18.4274 9.64443 18.51 10.671 18.3304 11.7226C18.3161 11.8124 18.2981 11.8985 18.2802 11.9883C18.2191 12.279 18.1365 12.5697 18.036 12.864C17.9355 13.1584 17.8134 13.4563 17.6698 13.7578C17.562 13.9875 17.7308 14.2531 17.9857 14.2531C18.1796 14.2531 18.3663 14.2567 18.5459 14.2603C18.7182 14.2639 18.8834 14.2675 19.0486 14.2675C19.2604 14.2675 19.4687 14.2639 19.6769 14.2423C20.8619 14.1383 21.7236 13.1763 21.896 11.9775C22.0073 11.2381 22.0073 11.0443 21.9893 10.5023Z" fill="white"/>
<path d="M11.0018 4.48307C7.41114 4.48307 4.49911 7.39401 4.49911 10.9833C4.49911 14.5727 7.41114 17.4836 11.0018 17.4836C14.5925 17.4836 17.5045 14.5727 17.5045 10.9833C17.5045 7.39401 14.5925 4.48307 11.0018 4.48307ZM12.7325 11.6115C11.9031 12.1032 11.0844 12.6057 10.2298 13.0472C10.0216 13.1585 9.63736 13.1656 9.45782 13.04C9.3142 12.9395 9.24956 12.516 9.34292 12.3293C9.78098 11.4212 9.72353 10.5598 9.31061 9.66247C9.09517 9.19586 9.35728 8.82974 9.90666 8.82615C9.95693 8.8441 10.097 8.87999 10.219 8.94819C11.0628 9.43993 11.9031 9.93526 12.7397 10.4414C13.3357 10.8003 13.3286 11.2561 12.7325 11.6115Z" fill="white"/>
</g>
<defs>
<clipPath id="clip0_3_37">
<rect width="22" height="17.48" fill="white"/>
</clipPath>
</defs>
</svg>
