<svg width="19" height="22" viewBox="0 0 19 22" fill="none" xmlns="http://www.w3.org/2000/svg">
<g clip-path="url(#clip0_0_1)">
<path d="M18.74 5.43231L19 5.57503L16.818 9.17795C16.7551 9.14467 16.6981 9.11533 16.6422 9.08374C16.5419 9.02903 16.5419 9.02903 16.4849 9.12154C16.2314 9.53841 15.9802 9.95472 15.7285 10.371L12.3025 16.0222C11.723 16.9778 11.1447 17.9311 10.5676 18.8867C10.5361 18.9375 10.5017 18.9691 10.434 18.9758C10.0866 19.0103 9.74168 19.0633 9.39315 19.0864C9.0844 19.1078 8.77387 19.1129 8.46512 19.0977C7.39993 19.0486 6.37512 18.8286 5.39424 18.4287C5.20543 18.3508 5.02137 18.2651 4.83612 18.1805C4.81177 18.1692 4.78862 18.1562 4.75774 18.1393L13.6224 3.51041C15.3449 4.57656 16.5455 6.02292 17.255 7.87713C17.7543 7.05579 18.246 6.24856 18.74 5.43231ZM12.5869 4.58164C12.559 4.62959 12.5329 4.67246 12.5068 4.71533C11.3098 6.68856 10.1128 8.66405 8.91755 10.6373C7.5923 12.8226 6.26884 15.0091 4.94359 17.1938C4.79396 17.4387 4.64849 17.6846 4.4959 17.9277C4.46087 17.9842 4.46977 18.0107 4.52856 18.0389C4.59624 18.0699 4.65918 18.1094 4.7334 18.1511C4.00487 19.3544 3.2799 20.5491 2.55137 21.7541C2.46112 21.7044 2.3774 21.6598 2.29071 21.6119L3.73768 19.2201C3.65277 19.1659 3.57321 19.1146 3.49484 19.0633C1.91131 18.0287 0.793868 16.6472 0.127681 14.9329C0.108681 14.8833 0.109868 14.8455 0.138368 14.7975C1.46362 12.6128 2.78709 10.4257 4.11234 8.24097C5.00237 6.77318 5.8924 5.30538 6.77709 3.8359C6.83943 3.7321 6.93502 3.74169 7.02349 3.72872C7.44802 3.66272 7.87671 3.62605 8.30896 3.61985C9.79215 3.59333 11.1916 3.90867 12.5157 4.54328C12.5365 4.55344 12.5572 4.56641 12.5869 4.58164ZM0.502337 13.5069C0.405556 13.1695 0.301056 12.8333 0.214368 12.4949C0.113431 12.0977 0.0498996 11.6944 0.0291183 11.2866C0.0130871 10.9938 -0.00769419 10.701 0.00299331 10.4105C0.0481183 9.20559 0.337868 8.05708 0.889462 6.96949C1.35615 6.04887 1.97721 5.23544 2.7574 4.53256C3.84159 3.55667 5.10449 2.87523 6.54612 2.50179C6.78243 2.44087 7.02349 2.39462 7.26455 2.34497C7.3269 2.33144 7.35124 2.29195 7.37737 2.24738L8.4194 0.525744L8.70559 0.0547179C8.71627 0.0377949 8.72815 0.0225641 8.74596 0L9.00246 0.140462C8.27571 1.342 7.55252 2.53846 6.8234 3.74C6.75274 3.7039 6.68327 3.67231 6.62093 3.63282C6.56512 3.59954 6.53781 3.60292 6.50277 3.66103C5.82293 4.7881 5.13952 5.91518 4.4579 7.04113C3.39746 8.78308 2.34474 10.5199 1.29202 12.2574C1.05215 12.6506 0.814649 13.0437 0.57715 13.4375L0.533806 13.5035C0.521931 13.5052 0.511243 13.5052 0.502337 13.5069ZM16.8198 9.20446C17.217 10.2475 17.3898 11.3131 17.3399 12.4074C17.2704 13.9249 16.8144 15.3329 15.9553 16.6156C15.1038 17.8866 13.9692 18.8681 12.5656 19.5693C11.7747 19.9625 10.9405 20.2349 10.0433 20.3889C12.3055 16.6534 14.5588 12.9349 16.8198 9.20446Z" fill="#F1F1F1"/>
</g>
<defs>
<clipPath id="clip0_0_1">
<rect width="19" height="22" fill="white"/>
</clipPath>
</defs>
</svg>
